<?xml version="1.0" encoding="UTF-8" standalone="no"?><!DOCTYPE svg PUBLIC "-//W3C//DTD SVG 1.1//EN" "http://www.w3.org/Graphics/SVG/1.1/DTD/svg11.dtd"><svg width="100%" height="100%" viewBox="0 0 1790 421" version="1.1" xmlns="http://www.w3.org/2000/svg" xmlns:xlink="http://www.w3.org/1999/xlink" xml:space="preserve" xmlns:serif="http://www.serif.com/" style="fill-rule:evenodd;clip-rule:evenodd;stroke-linejoin:round;stroke-miterlimit:2;"><rect id="Artboard3" x="0" y="0" width="1789.691" height="420.285" style="fill:none;"/><path d="M232.884,40.177l65.419,75.799l0.435,0.251l0,0.018l-32.919,19.006l-0.016,-0.009l-0,0.018l-32.919,19.006l0,-114.089Zm32.919,57.035l0,0.018l0.016,-0.009l-0.016,-0.009Z" style="fill:#f5e7da;"/><path d="M320.995,141.425l22.011,25.321l-11.319,6.535l-0.016,-0.009l0,0.018l-32.919,19.006l-0.016,-0.009l0,0.018l-32.919,19.006l-0.016,-0.009l0,0.018l-32.919,19.006l-0,-38.03l88.111,-50.871Z" style="fill:#f5e7da;"/><path d="M232.884,268.354l131.738,-76.059l1.193,0.689l21.214,24.404l-22.407,12.937l-0.016,-0.009l0,0.018l-32.919,19.006l-0.016,-0.009l0,0.018l-32.919,19.006l-0.016,-0.009l0,0.018l-32.919,19.006l-0.016,-0.009l0,0.018l-32.919,19.006l-0,-38.03Z" style="fill:#f5e7da;"/><path d="M430.476,268.363l-32.919,19.006l-0.016,-0.009l0,0.018l-32.919,19.006l-0.016,-0.009l0,0.018l-32.919,19.006l-0.016,-0.009l0,0.018l-32.919,19.006l-0.016,-0.009l-0,0.018l-32.919,19.006l-0.016,-0.009l0,0.018l-32.919,19.006l0,-38.03l176.156,-101.704l21.435,24.658l0,0.996Z" style="fill:#f5e7da;"/><path d="M232.884,382.443l-197.623,-114.098l0,-0.972l21.449,-24.674l11.486,6.631l0,0.018l0.016,-0.009l32.919,19.006l0,0.018l0.016,-0.009l32.919,19.006l0,0.018l0.016,-0.009l32.919,19.006l-0,0.018l0.016,-0.009l32.919,19.006l0,0.018l0.016,-0.009l32.919,19.006l0,0.018l0.016,-0.009l-0,38.03Z" style="fill:#dec3b0;"/><path d="M232.884,306.384l-154.163,-89.006l21.179,-24.364l1.246,-0.719l32.919,19.006l0,0.018l0.016,-0.009l32.919,19.006l0,0.018l0.016,-0.009l32.919,19.006l0,0.018l0.016,-0.009l32.919,19.006l0,0.018l0.016,-0.009l0,38.03Z" style="fill:#dec3b0;"/><path d="M122.744,166.736l22.011,-25.321l22.244,12.842l0,0.018l0.016,-0.009l32.919,19.006l0,0.018l0.016,-0.009l32.919,19.006l0,0.018l0.016,-0.009l0,38.03l-110.14,-63.589Z" style="fill:#dec3b0;"/><path d="M167.015,116.236l65.869,-76.059l0,38.03l-0.016,-0.009l0,0.018l0.016,-0.009l0,38.03l-0.016,-0.009l0,0.018l0.016,-0.009l-0,38.03l-65.869,-38.03Zm32.919,-19.024l0,0.018l0.016,-0.009l-0.016,-0.009Z" style="fill:#dec3b0;"/><text x="525.061px" y="268.017px" style="font-family:'Helvetica';font-size:237.703px;fill:#fff;">PYRAMIDE</text><text x="1315.127px" y="363.882px" style="font-family:'Helvetica';font-size:75.081px;fill:#f7e8d9;">IMMOBILIER</text></svg>